M48
; DRILL file {KiCad 9.0.0} date 2025-05-24T04:50:27-0400
; FORMAT={-:-/ absolute / metric / decimal}
; #@! TF.CreationDate,2025-05-24T04:50:27-04:00
; #@! TF.GenerationSoftware,Kicad,Pcbnew,9.0.0
; #@! TF.FileFunction,Plated,1,2,PTH
FMAT,2
METRIC
; #@! TA.AperFunction,Plated,PTH,ViaDrill
T1C0.800
; #@! TA.AperFunction,Plated,PTH,ComponentDrill
T2C1.000
; #@! TA.AperFunction,Plated,PTH,ComponentDrill
T3C1.020
; #@! TA.AperFunction,Plated,PTH,ComponentDrill
T4C1.100
; #@! TA.AperFunction,Plated,PTH,ComponentDrill
T5C1.300
; #@! TA.AperFunction,Plated,PTH,ComponentDrill
T6C3.000
%
G90
G05
T1
X29.02Y-139.83
X30.02Y-40.08
X37.02Y-139.83
X38.02Y-40.08
X54.52Y-130.33
X55.52Y-30.58
X59.02Y-145.33
X60.02Y-45.58
X61.02Y-130.33
X62.02Y-30.58
X64.52Y-155.83
X65.52Y-56.08
X72.02Y-144.83
X72.02Y-155.33
X72.02Y-174.83
X72.32Y-167.03
X73.02Y-45.08
X73.02Y-55.58
X73.02Y-75.08
X73.32Y-67.28
X74.77Y-176.08
X74.86Y-166.67
X75.77Y-76.33
X75.86Y-66.92
X90.02Y-157.33
X91.02Y-57.58
X101.02Y-147.33
X101.02Y-165.83
X101.27Y-175.58
X102.02Y-47.58
X102.02Y-66.08
X102.27Y-75.83
X127.52Y-171.83
X128.52Y-72.08
X130.52Y-163.83
X131.52Y-64.08
X158.02Y-40.33
X158.52Y-139.83
X166.02Y-40.33
X166.52Y-139.83
X183.52Y-30.83
X184.02Y-130.33
X188.02Y-45.83
X188.52Y-145.33
X190.02Y-30.83
X190.52Y-130.33
X193.52Y-56.33
X194.02Y-155.83
X201.02Y-45.33
X201.02Y-55.83
X201.02Y-75.33
X201.32Y-67.53
X201.52Y-144.83
X201.52Y-155.33
X201.52Y-174.83
X201.82Y-167.03
X203.77Y-76.58
X203.86Y-67.17
X204.27Y-176.08
X204.36Y-166.67
X219.02Y-57.83
X219.52Y-157.33
X230.02Y-47.83
X230.02Y-66.33
X230.27Y-76.08
X230.52Y-147.33
X230.52Y-165.83
X230.77Y-175.58
X256.52Y-72.33
X257.02Y-171.83
X259.52Y-64.33
X260.02Y-163.83
T2
X28.94Y-124.83
X29.94Y-25.08
X31.48Y-124.83
X32.48Y-25.08
X34.02Y-124.83
X35.02Y-25.08
X36.56Y-124.83
X37.56Y-25.08
X39.1Y-124.83
X40.1Y-25.08
X41.64Y-124.83
X42.64Y-25.08
X44.18Y-124.83
X45.18Y-25.08
X46.72Y-124.83
X47.72Y-25.08
X157.94Y-25.33
X158.44Y-124.83
X160.48Y-25.33
X160.98Y-124.83
X163.02Y-25.33
X163.52Y-124.83
X165.56Y-25.33
X166.06Y-124.83
X168.1Y-25.33
X168.6Y-124.83
X170.64Y-25.33
X171.14Y-124.83
X173.18Y-25.33
X173.68Y-124.83
X175.72Y-25.33
X176.22Y-124.83
T3
X64.7Y-139.83
X64.7Y-162.69
X65.7Y-40.08
X65.7Y-62.94
X67.24Y-139.83
X67.24Y-162.69
X68.24Y-40.08
X68.24Y-62.94
X69.78Y-139.83
X69.78Y-162.69
X70.78Y-40.08
X70.78Y-62.94
X72.32Y-139.83
X72.32Y-162.69
X73.32Y-40.08
X73.32Y-62.94
X74.86Y-139.83
X74.86Y-162.69
X75.86Y-40.08
X75.86Y-62.94
X77.4Y-139.83
X77.4Y-162.69
X78.4Y-40.08
X78.4Y-62.94
X79.94Y-139.83
X79.94Y-162.69
X80.94Y-40.08
X80.94Y-62.94
X82.48Y-139.83
X82.48Y-162.69
X83.48Y-40.08
X83.48Y-62.94
X85.02Y-139.83
X85.02Y-162.69
X86.02Y-40.08
X86.02Y-62.94
X87.56Y-139.83
X87.56Y-162.69
X88.56Y-40.08
X88.56Y-62.94
X90.1Y-139.83
X90.1Y-162.69
X91.1Y-40.08
X91.1Y-62.94
X92.64Y-139.83
X92.64Y-162.69
X93.64Y-40.08
X93.64Y-62.94
X95.18Y-139.83
X95.18Y-162.69
X96.18Y-40.08
X96.18Y-62.94
X97.72Y-139.83
X97.72Y-162.69
X98.72Y-40.08
X98.72Y-62.94
X100.26Y-139.83
X100.26Y-162.69
X101.26Y-40.08
X101.26Y-62.94
X102.8Y-139.83
X102.8Y-162.69
X103.8Y-40.08
X103.8Y-62.94
X105.34Y-139.83
X105.34Y-162.69
X106.34Y-40.08
X106.34Y-62.94
X107.88Y-139.83
X107.88Y-162.69
X108.88Y-40.08
X108.88Y-62.94
X110.42Y-139.83
X110.42Y-162.69
X111.42Y-40.08
X111.42Y-62.94
X112.96Y-139.83
X112.96Y-162.69
X113.96Y-40.08
X113.96Y-62.94
X115.5Y-139.83
X115.5Y-162.69
X116.5Y-40.08
X116.5Y-62.94
X118.04Y-139.83
X118.04Y-162.69
X119.04Y-40.08
X119.04Y-62.94
X193.7Y-40.33
X193.7Y-63.19
X194.2Y-139.83
X194.2Y-162.69
X196.24Y-40.33
X196.24Y-63.19
X196.74Y-139.83
X196.74Y-162.69
X198.78Y-40.33
X198.78Y-63.19
X199.28Y-139.83
X199.28Y-162.69
X201.32Y-40.33
X201.32Y-63.19
X201.82Y-139.83
X201.82Y-162.69
X203.86Y-40.33
X203.86Y-63.19
X204.36Y-139.83
X204.36Y-162.69
X206.4Y-40.33
X206.4Y-63.19
X206.9Y-139.83
X206.9Y-162.69
X208.94Y-40.33
X208.94Y-63.19
X209.44Y-139.83
X209.44Y-162.69
X211.48Y-40.33
X211.48Y-63.19
X211.98Y-139.83
X211.98Y-162.69
X214.02Y-40.33
X214.02Y-63.19
X214.52Y-139.83
X214.52Y-162.69
X216.56Y-40.33
X216.56Y-63.19
X217.06Y-139.83
X217.06Y-162.69
X219.1Y-40.33
X219.1Y-63.19
X219.6Y-139.83
X219.6Y-162.69
X221.64Y-40.33
X221.64Y-63.19
X222.14Y-139.83
X222.14Y-162.69
X224.18Y-40.33
X224.18Y-63.19
X224.68Y-139.83
X224.68Y-162.69
X226.72Y-40.33
X226.72Y-63.19
X227.22Y-139.83
X227.22Y-162.69
X229.26Y-40.33
X229.26Y-63.19
X229.76Y-139.83
X229.76Y-162.69
X231.8Y-40.33
X231.8Y-63.19
X232.3Y-139.83
X232.3Y-162.69
X234.34Y-40.33
X234.34Y-63.19
X234.84Y-139.83
X234.84Y-162.69
X236.88Y-40.33
X236.88Y-63.19
X237.38Y-139.83
X237.38Y-162.69
X239.42Y-40.33
X239.42Y-63.19
X239.92Y-139.83
X239.92Y-162.69
X241.96Y-40.33
X241.96Y-63.19
X242.46Y-139.83
X242.46Y-162.69
X244.5Y-40.33
X244.5Y-63.19
X245.0Y-139.83
X245.0Y-162.69
X247.04Y-40.33
X247.04Y-63.19
X247.54Y-139.83
X247.54Y-162.69
T4
X81.52Y-123.83
X81.52Y-130.33
X82.52Y-24.08
X82.52Y-30.58
X83.02Y-184.33
X83.02Y-190.83
X84.02Y-84.58
X84.02Y-91.08
X86.02Y-123.83
X86.02Y-130.33
X87.02Y-24.08
X87.02Y-30.58
X87.52Y-184.33
X87.52Y-190.83
X88.52Y-84.58
X88.52Y-91.08
X91.52Y-192.83
X91.52Y-199.33
X91.77Y-176.08
X91.77Y-182.58
X92.27Y-112.08
X92.27Y-118.58
X92.52Y-93.08
X92.52Y-99.58
X92.77Y-76.33
X92.77Y-82.83
X93.27Y-12.33
X93.27Y-18.83
X96.02Y-192.83
X96.02Y-199.33
X96.27Y-176.08
X96.27Y-182.58
X96.77Y-112.08
X96.77Y-118.58
X97.02Y-93.08
X97.02Y-99.58
X97.27Y-76.33
X97.27Y-82.83
X97.77Y-12.33
X97.77Y-18.83
X101.27Y-184.08
X101.27Y-190.58
X102.27Y-84.33
X102.27Y-90.83
X105.77Y-184.08
X105.77Y-190.58
X106.77Y-84.33
X106.77Y-90.83
X210.52Y-24.33
X210.52Y-30.83
X211.02Y-123.83
X211.02Y-130.33
X212.02Y-84.83
X212.02Y-91.33
X212.52Y-184.33
X212.52Y-190.83
X215.02Y-24.33
X215.02Y-30.83
X215.52Y-123.83
X215.52Y-130.33
X216.52Y-84.83
X216.52Y-91.33
X217.02Y-184.33
X217.02Y-190.83
X220.52Y-93.33
X220.52Y-99.83
X220.77Y-76.58
X220.77Y-83.08
X221.02Y-192.83
X221.02Y-199.33
X221.27Y-12.58
X221.27Y-19.08
X221.27Y-176.08
X221.27Y-182.58
X221.77Y-112.08
X221.77Y-118.58
X225.02Y-93.33
X225.02Y-99.83
X225.27Y-76.58
X225.27Y-83.08
X225.52Y-192.83
X225.52Y-199.33
X225.77Y-12.58
X225.77Y-19.08
X225.77Y-176.08
X225.77Y-182.58
X226.27Y-112.08
X226.27Y-118.58
X230.27Y-84.58
X230.27Y-91.08
X230.77Y-184.08
X230.77Y-190.58
X234.77Y-84.58
X234.77Y-91.08
X235.27Y-184.08
X235.27Y-190.58
T5
X117.02Y-175.33
X118.02Y-75.58
X122.02Y-175.33
X123.02Y-75.58
X246.02Y-75.83
X246.52Y-175.33
X251.02Y-75.83
X251.52Y-175.33
T6
X29.27Y-110.58
X29.27Y-201.58
X30.27Y-10.83
X30.27Y-101.83
X130.27Y-201.58
X130.77Y-110.58
X131.27Y-101.83
X131.77Y-10.83
X158.27Y-11.08
X158.27Y-102.08
X158.77Y-110.58
X158.77Y-201.58
X259.27Y-102.08
X259.77Y-11.08
X259.77Y-201.58
X260.27Y-110.58
M30
