M48
; DRILL file {KiCad 9.0.0} date 2025-05-24T03:45:07-0400
; FORMAT={-:-/ absolute / metric / decimal}
; #@! TF.CreationDate,2025-05-24T03:45:07-04:00
; #@! TF.GenerationSoftware,Kicad,Pcbnew,9.0.0
; #@! TF.FileFunction,Plated,1,2,PTH
FMAT,2
METRIC
; #@! TA.AperFunction,Plated,PTH,ViaDrill
T1C0.800
; #@! TA.AperFunction,Plated,PTH,ComponentDrill
T2C1.000
; #@! TA.AperFunction,Plated,PTH,ComponentDrill
T3C1.020
; #@! TA.AperFunction,Plated,PTH,ComponentDrill
T4C1.100
; #@! TA.AperFunction,Plated,PTH,ComponentDrill
T5C1.300
; #@! TA.AperFunction,Plated,PTH,ComponentDrill
T6C3.000
%
G90
G05
T1
X71.25Y-65.75
X71.75Y-92.25
X72.5Y-63.0
X75.5Y-118.5
X80.3Y-63.3
X80.66Y-65.84
X81.5Y-92.0
X83.5Y-121.5
X90.0Y-81.0
X91.5Y-55.5
X92.0Y-63.0
X100.0Y-92.0
X102.0Y-50.0
X102.5Y-63.0
X107.5Y-20.0
X107.5Y-28.0
X117.0Y-45.5
X117.0Y-52.0
T2
X122.5Y-19.92
X122.5Y-22.46
X122.5Y-25.0
X122.5Y-27.54
X122.5Y-30.08
X122.5Y-32.62
X122.5Y-35.16
X122.5Y-37.7
T3
X84.64Y-55.68
X84.64Y-58.22
X84.64Y-60.76
X84.64Y-63.3
X84.64Y-65.84
X84.64Y-68.38
X84.64Y-70.92
X84.64Y-73.46
X84.64Y-76.0
X84.64Y-78.54
X84.64Y-81.08
X84.64Y-83.62
X84.64Y-86.16
X84.64Y-88.7
X84.64Y-91.24
X84.64Y-93.78
X84.64Y-96.32
X84.64Y-98.86
X84.64Y-101.4
X84.64Y-103.94
X84.64Y-106.48
X84.64Y-109.02
X107.5Y-55.68
X107.5Y-58.22
X107.5Y-60.76
X107.5Y-63.3
X107.5Y-65.84
X107.5Y-68.38
X107.5Y-70.92
X107.5Y-73.46
X107.5Y-76.0
X107.5Y-78.54
X107.5Y-81.08
X107.5Y-83.62
X107.5Y-86.16
X107.5Y-88.7
X107.5Y-91.24
X107.5Y-93.78
X107.5Y-96.32
X107.5Y-98.86
X107.5Y-101.4
X107.5Y-103.94
X107.5Y-106.48
X107.5Y-109.02
T4
X48.0Y-82.5
X48.0Y-87.0
X54.5Y-82.5
X54.5Y-87.0
X56.5Y-74.0
X56.5Y-78.5
X56.75Y-92.25
X56.75Y-96.75
X63.0Y-74.0
X63.0Y-78.5
X63.25Y-92.25
X63.25Y-96.75
X64.75Y-82.75
X64.75Y-87.25
X71.25Y-82.75
X71.25Y-87.25
X117.0Y-72.5
X117.0Y-77.0
X123.5Y-72.5
X123.5Y-77.0
X128.75Y-83.25
X128.75Y-87.75
X135.25Y-83.25
X135.25Y-87.75
T5
X72.0Y-108.0
X72.0Y-113.0
T6
X46.5Y-121.0
X49.0Y-21.0
X132.5Y-21.5
X135.5Y-121.0
M30
